<?xml version="1.0" standalone="no"?><!DOCTYPE svg PUBLIC "-//W3C//DTD SVG 1.1//EN" "http://www.w3.org/Graphics/SVG/1.1/DTD/svg11.dtd"><svg class="icon" width="200px" height="200.00px" viewBox="0 0 1024 1024" version="1.1" xmlns="http://www.w3.org/2000/svg"><path d="M960.2 751.5H868v-92.7h-46.4v92.7h-92.2V798h92.2v91.6H868V798h92.2z" fill="#d4237a" /><path d="M110.5 713l153.2 32.3 315.1-225.2 242.8 73.1v34.3H868V159.7H64v700.7h627.6V814H110.5V713z m711.1-506.8v338.5l-251.3-75.6-317 226.6-142.8-30.1V206.2h711.1z" fill="#d4237a" /><path d="M308.3 510.8c65.9 0 119.6-53.7 119.6-119.6 0-65.9-53.7-119.6-119.6-119.6-65.9 0-119.6 53.7-119.6 119.6 0 65.9 53.7 119.6 119.6 119.6z m0-192.8c40.3 0 73.1 32.8 73.1 73.1s-32.8 73.2-73.1 73.2-73.1-32.8-73.1-73.2S268 318 308.3 318z" fill="#d4237a" /></svg>